<?xml version="1.0" encoding="UTF-8"?>
<!-- Generator: visioncortex VTracer 1.0.0-alpha.4 -->
<svg version="1.1" xmlns="http://www.w3.org/2000/svg" width="400" height="400">
<path d="M231,60c32.16,2.05,62.44,25.89,83,49c9.34,10.97,28,32.92,28,48c.99,0,1.98,0,3,0c.01-.59,.03-1.18,.04-1.79c.28-4.57,.49-6.65,3.52-10.27c.81-.64,1.61-1.28,2.44-1.94c1.94,.75,1.94,.75,4,2c1.34,3.38,.8,5.97,.04,9.46c-.23,1.05-.45,2.1-.68,3.18c-.24,1.09-.49,2.18-.73,3.3c-.24,1.08-.47,2.17-.72,3.28c-.43,2.03-.88,4.05-1.32,6.07c-.56,2.57-1.08,5.14-1.59,7.71c.82-.05,1.64-.09,2.49-.14c11.41-.37,20.08,2.27,28.51,10.14c6.02,6.59,9.54,14.02,10,23c-.91,9.76-4.74,18.75-11.96,25.46c-9.03,6.81-17.95,8.39-29.04,7.54c-5.15-1.26-9.34-3.22-13.31-6.75c-2.69-2.25-2.69-2.25-5-2.56c-3.29,.38-5.5,1.48-8.44,3c-26.33,12.6-56.07,13.75-83.58,4.29c-6.94-2.55-13.43-5.77-19.8-9.53c-4.33-2.48-4.33-2.48-6.98-2.33c-2.33,1.08-4.62,2.19-6.89,3.38c-7.44,3.9-14.52,4.63-22.81,2.92c-9.65-3.01-17.34-9.71-22.3-18.51c-2.14-4.58-3.2-8.86-2.89-13.91c-3,1-3,1-5,4c-2.73,.38-2.73,.38-6.24,.39c-.65,0-.65,0-3.97,.03c-1.44-.01-2.88-.01-4.32-.02c-1.47,0-2.94,0-4.41,.01c-3.08,0-6.16,0-9.24-.02c-3.96-.02-7.91-.01-11.86,.01c-3.04,.01-6.07,.01-9.11,0c-1.46,0-2.91,0-4.37,.01c-2.04,.01-4.08-.01-6.11-.02c-1.16,0-2.32-.01-3.52-.01C87,208,87,208,85.09,206.64C84,205,84,205,84.19,202.44C85,200,85,200,87,198c2.69-.26,2.69-.26,6.15-.27c1.29-.01,2.58-.02,3.91-.03c1.42,0,2.83,0,4.25,0c1.45,0,2.89-.01,4.34-.01c3.04-.01,6.07-.01,9.11-.01c3.89,.01,7.78-.01,11.67-.03c2.99-.01,5.98-.02,8.97-.01c1.44,0,2.87-.01,4.31-.02c2-.01,4.01,0,6.01,.01c1.15,0,2.29,0,3.47,0c2.81,.37,2.81,.37,4.7,1.77C155,201,155,201,155,203c.99,0,1.98,0,3,0c.03-.56,.05-1.11,.08-1.69c.63-8.56,3.81-15,9.6-21.35c6.16-5.21,14.13-9.56,22.32-8.96c-2.88-4.88-2.88-4.88-4-6c-.12-1.94-.16-3.89-.18-5.83c0-.63,0-.63-.04-3.79c0-1.37-.01-2.74-.02-4.12c0-.69-.01-1.38-.01-2.09c-.02-3.65-.04-7.29-.05-10.94c-.01-3.77-.04-7.54-.08-11.31c-.03-2.9-.03-5.79-.04-8.69c0-1.39-.01-2.78-.03-4.17c-.03-1.95-.02-3.89-.02-5.84c-.01-1.11-.01-2.21-.02-3.35c.6-3.52,1.68-4.73,4.49-6.87c3.02,.18,3.84,.84,6,3c.26,2.65,.26,2.65,.27,6.05c.01,1.28,.02,2.55,.03,3.86c0,1.39,0,2.79,0,4.18c0,1.42,.01,2.85,.01,4.27c.01,2.99,.01,5.98,.01,8.97c-.01,3.83,.01,7.66,.03,11.49c.01,2.95,.02,5.89,.01,8.83c0,1.42,.01,2.83,.02,4.24c.01,1.98,0,3.95-.01,5.93c0,1.12,0,2.24,0,3.4c-.42,3.15-1.02,3.79-3.37,5.78c-.16,.5-.16,.5-1,3c1.28,.06,2.56,.12,3.88,.19c8,.92,15.12,4.72,20.51,10.69c7.3,9.62,9.08,18.4,7.61,30.12c-1,3.55-2.25,6.76-4,10c.67,.25,1.33,.5,2.02,.76c2.26,.94,4.4,1.93,6.59,3.04c9.95,5.02,19.44,8.21,30.39,10.2c.8,.15,1.61,.3,2.43,.46c2.21,.32,4.34,.46,6.57,.54c1.29,.05,2.58,.1,3.91,.16c18.82,.49,36.04-3.07,53.09-11.16c-.14-.99-.29-1.98-.44-3c-.09-.64-.17-1.29-.26-1.95c-.28-1.94-.63-3.87-.99-5.8c-1.1-9.48,1.92-17.8,7.69-25.25c3.78-4,7.59-7.48,13-9c0-.99,0-1.98,0-3c-.64-.22-1.27-.43-1.93-.66c-4.33-1.89-8.24-4.36-12.26-6.84c-.82-.5-1.64-1-2.48-1.51c-6.07-3.73-6.07-3.73-8.33-5.99c.33-3.3,.62-4.62,3-7c3.83,.43,7.38,1.74,11,3c-15.64-37.51-43.82-66.75-81-83c-6.6-2.47-13.32-4.49-20.12-6.32C230,69,230,69,228,67c.33-3.3,.62-4.62,3-7Z" fill="#3ACF21"/>
<path d="M231,60c32.16,2.05,62.44,25.89,83,49c9.34,10.97,28,32.92,28,48c.99,0,1.98,0,3,0c.01-.59,.03-1.18,.04-1.79c.28-4.57,.49-6.65,3.52-10.27c.81-.64,1.61-1.28,2.44-1.94c1.94,.75,1.94,.75,4,2c1.34,3.38,.8,5.97,.04,9.46c-.23,1.05-.45,2.1-.68,3.18c-.12,.54-.12,.54-.73,3.3c-.24,1.08-.47,2.17-.72,3.28c-.43,2.03-.88,4.05-1.32,6.07c-.56,2.57-1.08,5.14-1.59,7.71c.82-.05,1.64-.09,2.49-.14c11.41-.37,20.08,2.27,28.51,10.14c6.02,6.59,9.54,14.02,10,23c-.91,9.76-4.74,18.75-11.96,25.46c-9.05,6.83-17.93,8.35-29.04,7.54c-8.79-1.84-17.44-7.81-22.51-15.2c-1.09-2.25-1.84-4.39-2.49-6.8c-.24-.87-.49-1.73-.74-2.62c-2.06-8.91-1.07-16.61,3.37-24.63c3.96-6.09,9.18-11.73,16.37-13.75c0-.99,0-1.98,0-3c-.64-.22-1.27-.43-1.93-.66c-4.33-1.89-8.24-4.36-12.26-6.84c-.82-.5-1.64-1-2.48-1.51c-6.07-3.73-6.07-3.73-8.33-5.99c.33-3.3,.62-4.62,3-7c3.83,.43,7.38,1.74,11,3c-15.64-37.51-43.82-66.75-81-83c-6.6-2.47-13.32-4.49-20.12-6.32C230,69,230,69,228,67c.33-3.3,.62-4.62,3-7Z" fill="#141414"/>
<path d="M310.19,299.06c7.62,5.72,12.33,12.92,14.44,22.22c1.25,9.18-1.18,17.89-6.54,25.4c-5.72,6.81-11.72,10.53-20.09,13.32c-12.08,1.03-20.71-1.4-30.03-9.16c-5.71-5.34-8.45-11.16-9.97-18.84c-.04-1.67-.06-3.33,0-5c-4.87,2.88-4.87,2.88-6,4c-1.6,.1-3.2,.14-4.81,.14c-.52,0-.52,0-3.15,.02c-1.15,0-2.3,0-3.49,0c-1.2,.01-2.41,.01-3.65,.02c-3.31,.01-6.63,.02-9.94,.02c-2.07,0-4.14,.01-6.21,.01c-6.47,.02-12.94,.03-19.4,.03c-7.48,0-14.96,.02-22.43,.05c-5.77,.02-11.55,.03-17.32,.03c-3.45,0-6.9,.01-10.35,.03c-3.85,.02-7.69,.01-11.54,.01c-1.15,.01-2.3,.01-3.48,.02c-1.04,0-2.09-.01-3.17-.01c-.45,0-.45,0-2.76,0c-2.3-.37-2.3-.37-4.12-1.73C125,328,125,328,125.06,325.44c.94-2.44,.94-2.44,2.68-3.58c2.59-.99,4.54-1.11,7.31-1.12c1.02-.01,2.03-.01,3.08-.02c.56,0,.56,0,3.37,.01c.59-.01,.59-.01,3.56-.02c3.21-.01,6.43-.01,9.65-.01c2.68,0,5.37-.01,8.06-.01c6.33-.01,12.67-.01,19.01-.01c6.54,.01,13.07,0,19.61-.02c5.61-.02,11.23-.03,16.84-.02c3.36,0,6.71,0,10.06-.02c3.74-.01,7.47,0,11.21,.01c1.11-.01,2.22-.02,3.37-.03c.51,.01,.51,.01,3.08,.03c.89,0,1.77,0,2.68,0c2.87,.45,4.28,1.38,6.37,3.37c0,.66,0,1.32,0,2c.99,0,1.98,0,3,0c.06-1.28,.12-2.56,.19-3.87c.92-8.03,4.74-15.05,10.65-20.53c13.12-9.73,27.4-11.52,41.35-2.54Z" fill="#141414"/>
<path d="M163,230c5.88,3.75,5.88,3.75,7,6c-4.78,5.88-9.59,11.73-14.5,17.5c-3.37,3.97-6.71,7.96-10,12c-3.74,4.6-7.56,9.13-11.4,13.65c-3.76,4.42-7.44,8.9-11.08,13.42c-1.81,2.17-3.7,4.2-5.64,6.24c-2.38,3.19-2.38,3.19-2.57,6c1.41,3.77,3.13,7.28,5.03,10.82c3.1,6.33,3.01,13.26,.97,19.93c-3.82,10.16-10.52,18.28-20.5,22.94c-8.65,3.01-18.62,2.87-26.93-1.06C64.37,351.97,58.46,344.98,55,335c-2.23-10.03-.18-18.31,5-27c5.83-8.32,14.08-13.06,24-15c6.43-.88,11.95,.93,18,3c1.2,.39,2.39,.78,3.63,1.19c.39,.13,.39,.13,2.37,.81c.23-.54,.46-1.08,.69-1.63c1.71-3.09,3.94-5.61,6.25-8.24c3.94-4.58,7.74-9.23,11.44-14c4.45-5.75,9.13-11.26,13.92-16.73c4.69-5.36,9.22-10.85,13.7-16.4c1.68-2.06,3.37-4.13,5.06-6.19c.76-.92,1.51-1.84,2.29-2.79c.54-.67,1.09-1.33,1.65-2.02Z" fill="#151515"/>
<path d="M64,174c8.59,5.88,13.76,13.37,16.69,23.34c1.4,8.09-1.1,16.61-5.38,23.47c-6.22,8.47-14.14,14.33-24.62,16.13c-9.6,.67-18.45-2.8-25.69-8.94c-6.5-6-10.39-12.54-11.38-21.4c-.33-9.82,1.39-17.29,7.69-24.91C32.81,169.58,48.79,165.78,64,174Z" fill="#151515"/>
<path d="M214.19,37.19c6.85,6.85,10.54,14.74,10.91,24.4c-.33,9.19-4.14,17.57-10.35,24.35c-7.35,6.69-15.99,9.48-25.75,9.33c-10.18-.91-17.23-5.86-24-13.27c-6.14-7.81-8.02-16.18-7-26c2-9.6,7.33-17.21,15.49-22.66c14.83-7.9,27.21-5.41,40.7,3.85Z" fill="#151515"/>
<path d="M231,60c32.16,2.05,62.44,25.89,83,49c9.34,10.97,28,32.92,28,48c.99,0,1.98,0,3,0c.01-.59,.03-1.18,.04-1.79c.28-4.57,.49-6.65,3.52-10.27c.81-.64,1.61-1.28,2.44-1.94c1.94,.75,1.94,.75,4,2c1.34,3.38,.8,5.97,.04,9.46c-.23,1.05-.45,2.1-.68,3.18c-.12,.54-.12,.54-.73,3.3c-.24,1.08-.47,2.17-.72,3.28c-.43,2.03-.88,4.05-1.32,6.07c-.56,2.57-1.08,5.14-1.59,7.71c-1.98,.66-3.96,1.32-6,2c0-.66,0-1.32,0-2c-.64-.22-1.27-.43-1.93-.66c-4.33-1.89-8.24-4.36-12.26-6.84c-.82-.5-1.64-1-2.48-1.51c-6.07-3.73-6.07-3.73-8.33-5.99c.33-3.3,.62-4.62,3-7c3.83,.43,7.38,1.74,11,3c-15.64-37.51-43.82-66.75-81-83c-6.6-2.47-13.32-4.49-20.12-6.32C230,69,230,69,228,67c.33-3.3,.62-4.62,3-7Z" fill="#3CD121"/>
<path d="M93.13,197.69c.64,0,.64,0,3.9-.04c1.42-.01,2.83-.02,4.24-.02c1.45-.01,2.89-.02,4.34-.03c3.03-.01,6.06-.02,9.09-.03c3.89,0,7.77-.04,11.65-.08c2.99-.03,5.97-.04,8.96-.04c1.43-.01,2.86-.02,4.29-.04c2-.03,4.01-.02,6.01-.01c1.14,0,2.28-.01,3.45-.01c2.94,.61,2.94,.61,5.34,3.15c.53,.81,1.06,1.62,1.6,2.46c-1.1,2.46-1.1,2.46-3,5c-2.85,.62-2.85,.62-6.35,.62c-1.31,0-2.62,.01-3.98,.02c-1.43-.01-2.86-.03-4.29-.05c-1.47,0-2.94,0-4.41,0c-3.08,0-6.15-.02-9.23-.05c-3.94-.04-7.89-.04-11.83-.03c-3.03,0-6.07-.01-9.1-.03c-1.45-.01-2.91-.01-4.36-.01c-2.03,0-4.07-.03-6.1-.05c-.58,0-.58,0-3.5-.03C87,208,87,208,85.09,206.63C84,205,84,205,84.19,202.44c1.67-5.01,4.13-4.7,8.94-4.75Z" fill="#131413"/>
<path d="M192.13,98.13C194,99,194,99,196,101c.27,2.64,.27,2.64,.29,6.04c.01,.63,.01,.63,.04,3.84c0,1.39,0,2.78,.01,4.17c0,1.43,.01,2.85,.02,4.27c.01,2.99,.01,5.97,.01,8.95c0,3.83,.03,7.65,.06,11.47c.02,2.94,.03,5.88,.03,8.82c0,1.41,.01,2.82,.02,4.23c.02,1.97,.02,3.94,.01,5.91c0,1.12,0,2.25,0,3.4c-.59,3.51-1.78,4.69-4.49,6.9c-2.47-1.15-4.05-2.05-6-4c-.27-2.61-.27-2.61-.29-5.95c-.01-1.25-.03-2.49-.04-3.78c0-1.37,0-2.74-.01-4.11c0-1.4-.01-2.8-.02-4.2c-.01-2.93-.01-5.87-.01-8.81c0-3.76-.03-7.52-.06-11.28c-.02-2.9-.03-5.79-.03-8.68c0-1.39-.01-2.77-.02-4.16c-.02-1.94-.02-3.88-.01-5.82c0-1.11,0-2.21,0-3.35c.65-3.78,2.42-6.98,6.62-6.73Z" fill="#161616"/>
<path d="M161,47c.66,.33,1.32,.66,2,1c-1.75,5.75-1.75,5.75-4,8c.88-6.75,.88-6.75,2-9Z" fill="#0F0F0F"/>
</svg>
